
<svg width="171px" height="358px" viewBox="0 0 171 358" version="1.1" xmlns="http://www.w3.org/2000/svg" xmlns:xlink="http://www.w3.org/1999/xlink">
    <!-- Generator: Sketch 48.2 (47327) - http://www.bohemiancoding.com/sketch -->
    <desc>Created with Sketch.</desc>
    <defs>
        <filter x="-6.1%" y="-3.0%" width="116.6%" height="108.4%" filterUnits="objectBoundingBox" id="filter-1">
            <feOffset dx="4" dy="4" in="SourceAlpha" result="shadowOffsetOuter1"></feOffset>
            <feGaussianBlur stdDeviation="3.5" in="shadowOffsetOuter1" result="shadowBlurOuter1"></feGaussianBlur>
            <feColorMatrix values="0 0 0 0 0   0 0 0 0 0   0 0 0 0 0  0 0 0 0.5 0" type="matrix" in="shadowBlurOuter1" result="shadowMatrixOuter1"></feColorMatrix>
            <feMerge>
                <feMergeNode in="shadowMatrixOuter1"></feMergeNode>
                <feMergeNode in="SourceGraphic"></feMergeNode>
            </feMerge>
        </filter>
    </defs>
    <g id="Page-1" stroke="none" stroke-width="1" fill="none" fill-rule="evenodd">
        <g id="Ship" filter="url(#filter-1)" transform="translate(3.000000, 2.000000)">
            <path d="M50.7514468,279.130571 C40.4161844,291.789496 40.4161844,298.181479 50.7514468,298.306519 C63.5611146,298.521171 69.9659485,298.628497 69.9659485,298.628497 C81.8107233,298.848012 82.0080089,291.971846 70.5578052,278" id="Path" fill="#BDC3C7"></path>
            <path d="M88.7514468,280.130571 C78.4161844,292.789496 78.4161844,299.181479 88.7514468,299.306519 C101.561115,299.521171 107.965949,299.628497 107.965949,299.628497 C119.810723,299.848012 120.008009,292.971846 108.557805,279" id="Path-Copy-2" fill="#BDC3C7"></path>
            <path d="M78.4575194,0 C9.14501939,77.0989583 -5.37320978,162.078125 34.9028319,254.9375 C0.0434568852,275.255208 -8.70393895,305.588542 8.66064439,345.9375 C29.4002277,305.940104 43.6840819,285.447917 51.5122069,284.460938 C56.528742,283.828447 123.664672,316.79894 116.738281,240.505859 C112.263021,191.211589 99.5027669,111.042969 78.4575194,0 Z" id="Path" stroke-opacity="0" stroke="#979797" fill="#34495E"></path>
            <path d="M109.651429,0 C68.7608044,50.0572917 46.8598345,103.571083 43.9485198,160.541373 C42.4018591,190.807325 52.0324406,222.511219 66.0967419,254.9375 C31.2373669,275.255208 22.489971,305.588542 39.8545544,345.9375 C60.5941377,305.940104 74.8779919,285.447917 82.7061169,284.460938 C87.4349941,283.864715 150.639163,225.865157 156.210023,156.785156 C158.644072,126.60237 143.12454,74.3406508 109.651429,0 Z" id="Path-Copy" stroke-opacity="0" stroke="#97EC42" fill="#DDE316" transform="translate(93.825715, 172.968750) scale(-1, 1) translate(-93.825715, -172.968750) "></path>
            <g id="Gun" transform="translate(54.000000, 45.000000)" stroke="#979797">
                <path d="M3,62.8644501 L3,30.3027344 C3.59602865,27.3509115 5.09602865,25.875 7.5,25.875 C9.90397135,25.875 11.4039714,27.3509115 12,30.3027344 L12,53.0872635 C14.700352,51.358434 17.741394,50.1150737 21,49.4803166 L21,8 C20.6513827,3.25 22.1811756,0.875 25.5893787,0.875 C28.9975818,0.875 30.4677889,3.25 30,8 L30,49.3057927 C32.8452206,49.745127 35.538155,50.6457446 38,51.9288425 L38,30.3027344 C38.5960286,27.3509115 40.0960286,25.875 42.5,25.875 C44.9039714,25.875 46.4039714,27.3509115 47,30.3027344 L47,59.6672614 C50.143996,63.9660067 52,69.2662569 52,75 C52,89.3594035 40.3594035,101 26,101 C11.6405965,101 0,89.3594035 0,75 C0,70.6169215 1.08457836,66.4871598 3,62.8644501 Z" id="Oval" fill="#DCDCDC"></path>
                <circle id="Oval-2" fill="#ADADAD" cx="25.5" cy="74.5" r="18.5"></circle>
            </g>
        </g>
    </g>
</svg>