<svg id="rocket_launch" version="1.1" xmlns="http://www.w3.org/2000/svg" xmlns:xlink="http://www.w3.org/1999/xlink" x="0px" y="0px" width="85.5px"
	 height="65.464px" viewBox="0 0 85.5 65.464" xml:space="preserve">
<g id="cloud" transform="translate(-5,-140)">
	<path class="cloud_fill" transform="scale(1)" fill="#D1D3D4" d="M57.931,164.945c-2.796-4.957-5.221-11.877-5.912-21.398H34.786c0,0,0.744,10.699-2.532,20.777
		c-2.25-1.5-4.97-2.391-7.916-2.391c-7.676,0-13.894,5.959-13.894,13.312c0,4.365,2.221,8.205,5.603,10.631
		c0.158,4.963,4.746,8.877,10.295,8.748c1.294-0.023,2.507-0.293,3.638-0.709c0.966,3.938,4.675,6.826,9.035,6.732
		c2.783-0.064,5.209-1.354,6.827-3.293c1.6,1.061,3.55,1.693,5.665,1.646c3.639-0.082,6.716-2.104,8.239-4.969
		c1.283,1.061,2.894,1.709,4.67,1.674c2.15-0.051,4.043-1.088,5.326-2.67c0.961,0.381,2.016,0.59,3.117,0.562
		c4.236-0.094,7.589-3.41,7.488-7.424c-0.035-1.553-0.598-2.973-1.512-4.133c2.819-2.438,4.629-5.928,4.629-9.855
		C83.466,171.238,76.781,151.058,57.931,164.945z"/>
</g>
</svg>